<?xml version="1.0" encoding="utf-8"?><!-- Uploaded to: SVG Repo, www.svgrepo.com, Generator: SVG Repo Mixer Tools -->
<svg fill="currentColor" height="1em" width="1em" version="1.1" id="Layer_1" xmlns="http://www.w3.org/2000/svg" xmlns:xlink="http://www.w3.org/1999/xlink" viewBox="0 0 512 512" xml:space="preserve"><g id="SVGRepo_bgCarrier" stroke-width="0"></g><g id="SVGRepo_tracerCarrier" stroke-linecap="round" stroke-linejoin="round"></g><g id="SVGRepo_iconCarrier"> <g> <g> <g> <path d="M355.682,368.647H156.229c-6.576,0-11.907,5.331-11.907,11.907c0,0,0,17.795,0,17.795 c0,25.434,20.562,46.148,45.936,46.414h131.397c25.372-0.267,45.935-20.98,45.935-46.414v-17.795 C367.589,373.978,362.259,368.647,355.682,368.647z"></path> <path d="M421.434,118.871C397.745,48.985,334.605-1.122,253.436,0.019C173.763,1.141,112.235,51.894,89.744,121.45 c-21.624,66.875-3.794,140.697,54.577,188.656v28.773c0,6.576,5.331,11.907,11.907,11.907h78.889 c6.576,0,11.907-5.331,11.907-11.907v-82.803l-44.586-77.225c-2.466-4.271-1.003-9.733,3.268-12.199 c4.27-2.465,9.733-1.003,12.199,3.268l38.049,65.903l37.862-65.579c2.445-4.235,7.841-6.043,12.146-3.726 c4.456,2.398,6.02,7.982,3.508,12.332l-44.586,77.225v82.805c0,6.576,5.331,11.907,11.907,11.907h78.888 c6.576,0,11.907-5.331,11.907-11.907v-28.772C426.066,262.074,444.596,187.205,421.434,118.871z"></path> <path d="M300.201,462.624h-88.49c-9.081,0-14.937,9.826-10.407,17.697C212.193,499.236,232.607,512,255.956,512 s43.763-12.764,54.652-31.678C315.138,472.451,309.282,462.624,300.201,462.624z"></path> </g> </g> </g> </g></svg>
